<svg xmlns="http://www.w3.org/2000/svg" xmlns:xlink="http://www.w3.org/1999/xlink" version="1.1" width="540" height="386" viewBox="0 0 540 386" xml:space="preserve">
<desc>Created with Fabric.js 3.5.0</desc>
<defs>
</defs>
<rect x="0" y="0" width="100%" height="100%" fill="rgba(255,255,255,0)"/>
<g transform="matrix(0.5218 0 0 0.5218 270.0315 192.8051)" id="440017">
<g style="" vector-effect="non-scaling-stroke">
		<g transform="matrix(1 0 0 1 -27.5 -59.5)">
<rect style="stroke: none; stroke-width: 1; stroke-dasharray: none; stroke-linecap: butt; stroke-dashoffset: 0; stroke-linejoin: miter; stroke-miterlimit: 4; is-custom-font: none; font-file-url: none; fill: rgb(0,0,0); fill-rule: evenodd; opacity: 1;" x="-480" y="-300" rx="20" ry="20" width="960" height="600"/>
</g>
		<g transform="matrix(1 0 0 1 -27.5 -59.5)">
<rect style="stroke: none; stroke-width: 1; stroke-dasharray: none; stroke-linecap: butt; stroke-dashoffset: 0; stroke-linejoin: miter; stroke-miterlimit: 4; is-custom-font: none; font-file-url: none; fill: rgb(255,255,255); fill-rule: evenodd; opacity: 1;" x="-480" y="-300" rx="20" ry="20" width="960" height="600"/>
</g>
		<g transform="matrix(1 0 0 1 -27.5 -327.5)">
<path style="stroke: none; stroke-width: 1; stroke-dasharray: none; stroke-linecap: butt; stroke-dashoffset: 0; stroke-linejoin: miter; stroke-miterlimit: 4; is-custom-font: none; font-file-url: none; fill: rgb(0,0,0); fill-rule: evenodd; opacity: 1;" transform=" translate(-480, -32)" d="M 20 0 h 920 c 11.046 0 20 8.954 20 20 v 44 H 0 V 20 C 0 8.954 8.954 0 20 0 z" stroke-linecap="round"/>
</g>
		<g transform="matrix(1 0 0 1 -27.5 -327.5)">
<path style="stroke: none; stroke-width: 1; stroke-dasharray: none; stroke-linecap: butt; stroke-dashoffset: 0; stroke-linejoin: miter; stroke-miterlimit: 4; is-custom-font: none; font-file-url: none; fill: rgb(0,37,46); fill-rule: evenodd; opacity: 1;" transform=" translate(-480, -32)" d="M 20 0 h 920 c 11.046 0 20 8.954 20 20 v 44 H 0 V 20 C 0 8.954 8.954 0 20 0 z" stroke-linecap="round"/>
</g>
		<g transform="matrix(1 0 0 1 -335.5 -327.5)">
<rect style="stroke: none; stroke-width: 1; stroke-dasharray: none; stroke-linecap: butt; stroke-dashoffset: 0; stroke-linejoin: miter; stroke-miterlimit: 4; is-custom-font: none; font-file-url: none; fill: rgb(225,232,238); fill-rule: evenodd; opacity: 1;" x="-100" y="-12" rx="5" ry="5" width="200" height="24"/>
</g>
		<g transform="matrix(1 0 0 1 372.5 -335.5)">
<rect style="stroke: none; stroke-width: 1; stroke-dasharray: none; stroke-linecap: butt; stroke-dashoffset: 0; stroke-linejoin: miter; stroke-miterlimit: 4; is-custom-font: none; font-file-url: none; fill: rgb(216,216,216); fill-rule: evenodd; opacity: 1;" x="-16" y="-2" rx="2" ry="2" width="32" height="4"/>
</g>
		<g transform="matrix(1 0 0 1 372.5 -327.5)">
<rect style="stroke: none; stroke-width: 1; stroke-dasharray: none; stroke-linecap: butt; stroke-dashoffset: 0; stroke-linejoin: miter; stroke-miterlimit: 4; is-custom-font: none; font-file-url: none; fill: rgb(216,216,216); fill-rule: evenodd; opacity: 1;" x="-16" y="-2" rx="2" ry="2" width="32" height="4"/>
</g>
		<g transform="matrix(1 0 0 1 372.5 -319.5)">
<rect style="stroke: none; stroke-width: 1; stroke-dasharray: none; stroke-linecap: butt; stroke-dashoffset: 0; stroke-linejoin: miter; stroke-miterlimit: 4; is-custom-font: none; font-file-url: none; fill: rgb(216,216,216); fill-rule: evenodd; opacity: 1;" x="-16" y="-2" rx="2" ry="2" width="32" height="4"/>
</g>
		<g transform="matrix(1 0 0 1 -387.5 -173.5)">
<linearGradient id="SVGID_22" gradientUnits="objectBoundingBox" gradientTransform="matrix(1 0 0 1 0 0)" x1="0.14811" y1="-0.22361999999999999" x2="0.75996" y2="1.1940600000000001">
<stop offset="0%" style="stop-color:rgb(250,217,97);stop-opacity: 1"/>
<stop offset="100%" style="stop-color:rgb(255,82,193);stop-opacity: 1"/>
</linearGradient>
<circle style="stroke: none; stroke-width: 1; stroke-dasharray: none; stroke-linecap: butt; stroke-dashoffset: 0; stroke-linejoin: miter; stroke-miterlimit: 4; is-custom-font: none; font-file-url: none; fill: url(#SVGID_22); fill-rule: evenodd; opacity: 1;" cx="0" cy="0" r="48"/>
</g>
		<g transform="matrix(1 0 0 1 -226 -201.5)">
<rect style="stroke: none; stroke-width: 1; stroke-dasharray: none; stroke-linecap: butt; stroke-dashoffset: 0; stroke-linejoin: miter; stroke-miterlimit: 4; is-custom-font: none; font-file-url: none; fill: rgb(225,232,238); fill-rule: evenodd; opacity: 1;" x="-57.5" y="-8" rx="3" ry="3" width="115" height="16"/>
</g>
		<g transform="matrix(1 0 0 1 -83.5 -173.5)">
<rect style="stroke: none; stroke-width: 1; stroke-dasharray: none; stroke-linecap: butt; stroke-dashoffset: 0; stroke-linejoin: miter; stroke-miterlimit: 4; is-custom-font: none; font-file-url: none; fill: rgb(225,232,238); fill-rule: evenodd; opacity: 1;" x="-200" y="-4" rx="3" ry="3" width="400" height="8"/>
</g>
		<g transform="matrix(1 0 0 1 -100.1665 -157.5)">
<rect style="stroke: none; stroke-width: 1; stroke-dasharray: none; stroke-linecap: butt; stroke-dashoffset: 0; stroke-linejoin: miter; stroke-miterlimit: 4; is-custom-font: none; font-file-url: none; fill: rgb(225,232,238); fill-rule: evenodd; opacity: 1;" x="-183.3335" y="-4" rx="3" ry="3" width="366.667" height="8"/>
</g>
		<g transform="matrix(1 0 0 1 -116.8335 -141.5)">
<rect style="stroke: none; stroke-width: 1; stroke-dasharray: none; stroke-linecap: butt; stroke-dashoffset: 0; stroke-linejoin: miter; stroke-miterlimit: 4; is-custom-font: none; font-file-url: none; fill: rgb(225,232,238); fill-rule: evenodd; opacity: 1;" x="-166.6665" y="-4" rx="3" ry="3" width="333.333" height="8"/>
</g>
		<g transform="matrix(1 0 0 1 176.5 -173.5)">
<circle style="stroke: none; stroke-width: 1; stroke-dasharray: none; stroke-linecap: butt; stroke-dashoffset: 0; stroke-linejoin: miter; stroke-miterlimit: 4; is-custom-font: none; font-file-url: none; fill: rgb(167,185,200); fill-rule: evenodd; opacity: 1;" cx="0" cy="0" r="12"/>
</g>
		<g transform="matrix(1 0 0 1 240.5 -173.5)">
<circle style="stroke: none; stroke-width: 1; stroke-dasharray: none; stroke-linecap: butt; stroke-dashoffset: 0; stroke-linejoin: miter; stroke-miterlimit: 4; is-custom-font: none; font-file-url: none; fill: rgb(167,185,200); fill-rule: evenodd; opacity: 1;" cx="0" cy="0" r="12"/>
</g>
		<g transform="matrix(1 0 0 1 208.5 -173.5)">
<circle style="stroke: none; stroke-width: 1; stroke-dasharray: none; stroke-linecap: butt; stroke-dashoffset: 0; stroke-linejoin: miter; stroke-miterlimit: 4; is-custom-font: none; font-file-url: none; fill: rgb(167,185,200); fill-rule: evenodd; opacity: 1;" cx="0" cy="0" r="12"/>
</g>
		<g transform="matrix(1 0 0 1 272.5 -173.5)">
<circle style="stroke: none; stroke-width: 1; stroke-dasharray: none; stroke-linecap: butt; stroke-dashoffset: 0; stroke-linejoin: miter; stroke-miterlimit: 4; is-custom-font: none; font-file-url: none; fill: rgb(167,185,200); fill-rule: evenodd; opacity: 1;" cx="0" cy="0" r="12"/>
</g>
		<g transform="matrix(1 0 0 1 304.5 -173.5)">
<circle style="stroke: none; stroke-width: 1; stroke-dasharray: none; stroke-linecap: butt; stroke-dashoffset: 0; stroke-linejoin: miter; stroke-miterlimit: 4; is-custom-font: none; font-file-url: none; fill: rgb(167,185,200); fill-rule: evenodd; opacity: 1;" cx="0" cy="0" r="12"/>
</g>
		<g transform="matrix(1 0 0 1 -390.5 -40.5)">
<linearGradient id="SVGID_23" gradientUnits="objectBoundingBox" gradientTransform="matrix(1 0 0 1 0 0)" x1="0.5" y1="0" x2="0.5" y2="1">
<stop offset="0%" style="stop-color:rgb(0,199,250);stop-opacity: 1"/>
<stop offset="100%" style="stop-color:rgb(0,125,250);stop-opacity: 1"/>
</linearGradient>
<circle style="stroke: none; stroke-width: 1; stroke-dasharray: none; stroke-linecap: butt; stroke-dashoffset: 0; stroke-linejoin: miter; stroke-miterlimit: 4; is-custom-font: none; font-file-url: none; fill: url(#SVGID_23); fill-rule: evenodd; opacity: 1;" cx="0" cy="0" r="45"/>
</g>
		<g transform="matrix(1 0 0 1 -229 -68.5)">
<rect style="stroke: none; stroke-width: 1; stroke-dasharray: none; stroke-linecap: butt; stroke-dashoffset: 0; stroke-linejoin: miter; stroke-miterlimit: 4; is-custom-font: none; font-file-url: none; fill: rgb(225,232,238); fill-rule: evenodd; opacity: 1;" x="-57.5" y="-8" rx="3" ry="3" width="115" height="16"/>
</g>
		<g transform="matrix(1 0 0 1 -86.5 -40.5)">
<rect style="stroke: none; stroke-width: 1; stroke-dasharray: none; stroke-linecap: butt; stroke-dashoffset: 0; stroke-linejoin: miter; stroke-miterlimit: 4; is-custom-font: none; font-file-url: none; fill: rgb(225,232,238); fill-rule: evenodd; opacity: 1;" x="-200" y="-4" rx="3" ry="3" width="400" height="8"/>
</g>
		<g transform="matrix(1 0 0 1 -103.1665 -24.5)">
<rect style="stroke: none; stroke-width: 1; stroke-dasharray: none; stroke-linecap: butt; stroke-dashoffset: 0; stroke-linejoin: miter; stroke-miterlimit: 4; is-custom-font: none; font-file-url: none; fill: rgb(225,232,238); fill-rule: evenodd; opacity: 1;" x="-183.3335" y="-4" rx="3" ry="3" width="366.667" height="8"/>
</g>
		<g transform="matrix(1 0 0 1 -119.8335 -8.5)">
<rect style="stroke: none; stroke-width: 1; stroke-dasharray: none; stroke-linecap: butt; stroke-dashoffset: 0; stroke-linejoin: miter; stroke-miterlimit: 4; is-custom-font: none; font-file-url: none; fill: rgb(225,232,238); fill-rule: evenodd; opacity: 1;" x="-166.6665" y="-4" rx="3" ry="3" width="333.333" height="8"/>
</g>
		<g transform="matrix(1 0 0 1 173.5 -40.5)">
<circle style="stroke: none; stroke-width: 1; stroke-dasharray: none; stroke-linecap: butt; stroke-dashoffset: 0; stroke-linejoin: miter; stroke-miterlimit: 4; is-custom-font: none; font-file-url: none; fill: rgb(167,185,200); fill-rule: evenodd; opacity: 1;" cx="0" cy="0" r="12"/>
</g>
		<g transform="matrix(1 0 0 1 237.5 -40.5)">
<circle style="stroke: none; stroke-width: 1; stroke-dasharray: none; stroke-linecap: butt; stroke-dashoffset: 0; stroke-linejoin: miter; stroke-miterlimit: 4; is-custom-font: none; font-file-url: none; fill: rgb(167,185,200); fill-rule: evenodd; opacity: 1;" cx="0" cy="0" r="12"/>
</g>
		<g transform="matrix(1 0 0 1 205.5 -40.5)">
<circle style="stroke: none; stroke-width: 1; stroke-dasharray: none; stroke-linecap: butt; stroke-dashoffset: 0; stroke-linejoin: miter; stroke-miterlimit: 4; is-custom-font: none; font-file-url: none; fill: rgb(167,185,200); fill-rule: evenodd; opacity: 1;" cx="0" cy="0" r="12"/>
</g>
		<g transform="matrix(1 0 0 1 -390.5 102.5)">
<linearGradient id="SVGID_24" gradientUnits="objectBoundingBox" gradientTransform="matrix(1 0 0 1 0 0)" x1="0.28973" y1="0" x2="0.902" y2="1.11244">
<stop offset="0%" style="stop-color:rgb(255,82,193);stop-opacity: 1"/>
<stop offset="100%" style="stop-color:rgb(153,82,255);stop-opacity: 1"/>
</linearGradient>
<circle style="stroke: none; stroke-width: 1; stroke-dasharray: none; stroke-linecap: butt; stroke-dashoffset: 0; stroke-linejoin: miter; stroke-miterlimit: 4; is-custom-font: none; font-file-url: none; fill: url(#SVGID_24); fill-rule: evenodd; opacity: 1;" cx="0" cy="0" r="45"/>
</g>
		<g transform="matrix(1 0 0 1 -229 74.5)">
<rect style="stroke: none; stroke-width: 1; stroke-dasharray: none; stroke-linecap: butt; stroke-dashoffset: 0; stroke-linejoin: miter; stroke-miterlimit: 4; is-custom-font: none; font-file-url: none; fill: rgb(225,232,238); fill-rule: evenodd; opacity: 1;" x="-57.5" y="-8" rx="3" ry="3" width="115" height="16"/>
</g>
		<g transform="matrix(1 0 0 1 -86.5 102.5)">
<rect style="stroke: none; stroke-width: 1; stroke-dasharray: none; stroke-linecap: butt; stroke-dashoffset: 0; stroke-linejoin: miter; stroke-miterlimit: 4; is-custom-font: none; font-file-url: none; fill: rgb(225,232,238); fill-rule: evenodd; opacity: 1;" x="-200" y="-4" rx="3" ry="3" width="400" height="8"/>
</g>
		<g transform="matrix(1 0 0 1 -103.1665 118.5)">
<rect style="stroke: none; stroke-width: 1; stroke-dasharray: none; stroke-linecap: butt; stroke-dashoffset: 0; stroke-linejoin: miter; stroke-miterlimit: 4; is-custom-font: none; font-file-url: none; fill: rgb(225,232,238); fill-rule: evenodd; opacity: 1;" x="-183.3335" y="-4" rx="3" ry="3" width="366.667" height="8"/>
</g>
		<g transform="matrix(1 0 0 1 -119.8335 134.5)">
<rect style="stroke: none; stroke-width: 1; stroke-dasharray: none; stroke-linecap: butt; stroke-dashoffset: 0; stroke-linejoin: miter; stroke-miterlimit: 4; is-custom-font: none; font-file-url: none; fill: rgb(225,232,238); fill-rule: evenodd; opacity: 1;" x="-166.6665" y="-4" rx="3" ry="3" width="333.333" height="8"/>
</g>
		<g transform="matrix(1 0 0 1 173.5 102.5)">
<circle style="stroke: none; stroke-width: 1; stroke-dasharray: none; stroke-linecap: butt; stroke-dashoffset: 0; stroke-linejoin: miter; stroke-miterlimit: 4; is-custom-font: none; font-file-url: none; fill: rgb(167,185,200); fill-rule: evenodd; opacity: 1;" cx="0" cy="0" r="12"/>
</g>
		<g transform="matrix(1 0 0 1 237.5 102.5)">
<circle style="stroke: none; stroke-width: 1; stroke-dasharray: none; stroke-linecap: butt; stroke-dashoffset: 0; stroke-linejoin: miter; stroke-miterlimit: 4; is-custom-font: none; font-file-url: none; fill: rgb(167,185,200); fill-rule: evenodd; opacity: 1;" cx="0" cy="0" r="12"/>
</g>
		<g transform="matrix(1 0 0 1 205.5 102.5)">
<circle style="stroke: none; stroke-width: 1; stroke-dasharray: none; stroke-linecap: butt; stroke-dashoffset: 0; stroke-linejoin: miter; stroke-miterlimit: 4; is-custom-font: none; font-file-url: none; fill: rgb(167,185,200); fill-rule: evenodd; opacity: 1;" cx="0" cy="0" r="12"/>
</g>
		<g transform="matrix(1 0 0 1 269.5 102.5)">
<circle style="stroke: none; stroke-width: 1; stroke-dasharray: none; stroke-linecap: butt; stroke-dashoffset: 0; stroke-linejoin: miter; stroke-miterlimit: 4; is-custom-font: none; font-file-url: none; fill: rgb(167,185,200); fill-rule: evenodd; opacity: 1;" cx="0" cy="0" r="12"/>
</g>
		<g transform="matrix(1 0 0 1 348.5 104.5)">
<rect style="stroke: none; stroke-width: 1; stroke-dasharray: none; stroke-linecap: butt; stroke-dashoffset: 0; stroke-linejoin: miter; stroke-miterlimit: 4; is-custom-font: none; font-file-url: none; fill: rgb(0,0,0); fill-rule: evenodd; opacity: 1;" x="-160" y="-256" rx="17.067" ry="17.067" width="320" height="512"/>
</g>
		<g transform="matrix(1 0 0 1 348.5 104.5)">
<rect style="stroke: none; stroke-width: 1; stroke-dasharray: none; stroke-linecap: butt; stroke-dashoffset: 0; stroke-linejoin: miter; stroke-miterlimit: 4; is-custom-font: none; font-file-url: none; fill: rgb(255,255,255); fill-rule: evenodd; opacity: 1;" x="-160" y="-256" rx="17.067" ry="17.067" width="320" height="512"/>
</g>
		<g transform="matrix(1 0 0 1 348.5 -124.1935)">
<path style="stroke: none; stroke-width: 1; stroke-dasharray: none; stroke-linecap: butt; stroke-dashoffset: 0; stroke-linejoin: miter; stroke-miterlimit: 4; is-custom-font: none; font-file-url: none; fill: rgb(0,0,0); fill-rule: evenodd; opacity: 1;" transform=" translate(-160, -27.3065)" d="M 17.067 0 h 285.866 C 312.36 0 320 7.641 320 17.067 v 37.546 H 0 V 17.067 C 0 7.64 7.641 0 17.067 0 z" stroke-linecap="round"/>
</g>
		<g transform="matrix(1 0 0 1 348.5 -124.1935)">
<path style="stroke: none; stroke-width: 1; stroke-dasharray: none; stroke-linecap: butt; stroke-dashoffset: 0; stroke-linejoin: miter; stroke-miterlimit: 4; is-custom-font: none; font-file-url: none; fill: rgb(0,37,46); fill-rule: evenodd; opacity: 1;" transform=" translate(-160, -27.3065)" d="M 17.067 0 h 285.866 C 312.36 0 320 7.641 320 17.067 v 37.546 H 0 V 17.067 C 0 7.64 7.641 0 17.067 0 z" stroke-linecap="round"/>
</g>
		<g transform="matrix(1 0 0 1 272.633 -122.487)">
<rect style="stroke: none; stroke-width: 1; stroke-dasharray: none; stroke-linecap: butt; stroke-dashoffset: 0; stroke-linejoin: miter; stroke-miterlimit: 4; is-custom-font: none; font-file-url: none; fill: rgb(225,232,238); fill-rule: evenodd; opacity: 1;" x="-52" y="-10.24" rx="4.267" ry="4.267" width="104" height="20.48"/>
</g>
		<g transform="matrix(1 0 0 1 460.7135 -129.3135)">
<rect style="stroke: none; stroke-width: 1; stroke-dasharray: none; stroke-linecap: butt; stroke-dashoffset: 0; stroke-linejoin: miter; stroke-miterlimit: 4; is-custom-font: none; font-file-url: none; fill: rgb(216,216,216); fill-rule: evenodd; opacity: 1;" x="-13.6535" y="-1.7065" rx="1.707" ry="1.707" width="27.307" height="3.413"/>
</g>
		<g transform="matrix(1 0 0 1 460.7135 -122.4865)">
<rect style="stroke: none; stroke-width: 1; stroke-dasharray: none; stroke-linecap: butt; stroke-dashoffset: 0; stroke-linejoin: miter; stroke-miterlimit: 4; is-custom-font: none; font-file-url: none; fill: rgb(216,216,216); fill-rule: evenodd; opacity: 1;" x="-13.6535" y="-1.7065" rx="1.707" ry="1.707" width="27.307" height="3.413"/>
</g>
		<g transform="matrix(1 0 0 1 460.7135 -115.6605)">
<rect style="stroke: none; stroke-width: 1; stroke-dasharray: none; stroke-linecap: butt; stroke-dashoffset: 0; stroke-linejoin: miter; stroke-miterlimit: 4; is-custom-font: none; font-file-url: none; fill: rgb(216,216,216); fill-rule: evenodd; opacity: 1;" x="-13.6535" y="-1.7065" rx="1.707" ry="1.707" width="27.307" height="3.413"/>
</g>
		<g transform="matrix(1 0 0 1 235.5 -28.5)">
<linearGradient id="SVGID_25" gradientUnits="objectBoundingBox" gradientTransform="matrix(1 0 0 1 0 0)" x1="0.14811" y1="-0.22361999999999999" x2="0.75996" y2="1.1940600000000001">
<stop offset="0%" style="stop-color:rgb(250,217,97);stop-opacity: 1"/>
<stop offset="100%" style="stop-color:rgb(255,82,193);stop-opacity: 1"/>
</linearGradient>
<circle style="stroke: none; stroke-width: 1; stroke-dasharray: none; stroke-linecap: butt; stroke-dashoffset: 0; stroke-linejoin: miter; stroke-miterlimit: 4; is-custom-font: none; font-file-url: none; fill: url(#SVGID_25); fill-rule: evenodd; opacity: 1;" cx="0" cy="0" r="15"/>
</g>
		<g transform="matrix(1 0 0 1 295.25 -37.8335)">
<rect style="stroke: none; stroke-width: 1; stroke-dasharray: none; stroke-linecap: butt; stroke-dashoffset: 0; stroke-linejoin: miter; stroke-miterlimit: 4; is-custom-font: none; font-file-url: none; fill: rgb(225,232,238); fill-rule: evenodd; opacity: 1;" x="-28.75" y="-2.6665" rx="0.92" ry="0.92" width="57.5" height="5.333"/>
</g>
		<g transform="matrix(1 0 0 1 366.5 -28.4995)">
<rect style="stroke: none; stroke-width: 1; stroke-dasharray: none; stroke-linecap: butt; stroke-dashoffset: 0; stroke-linejoin: miter; stroke-miterlimit: 4; is-custom-font: none; font-file-url: none; fill: rgb(225,232,238); fill-rule: evenodd; opacity: 1;" x="-100" y="-1.3335" rx="0.92" ry="0.92" width="200" height="2.667"/>
</g>
		<g transform="matrix(1 0 0 1 358.1665 -23.1665)">
<rect style="stroke: none; stroke-width: 1; stroke-dasharray: none; stroke-linecap: butt; stroke-dashoffset: 0; stroke-linejoin: miter; stroke-miterlimit: 4; is-custom-font: none; font-file-url: none; fill: rgb(225,232,238); fill-rule: evenodd; opacity: 1;" x="-91.6665" y="-1.3335" rx="0.92" ry="0.92" width="183.333" height="2.667"/>
</g>
		<g transform="matrix(1 0 0 1 349.8335 -17.8335)">
<rect style="stroke: none; stroke-width: 1; stroke-dasharray: none; stroke-linecap: butt; stroke-dashoffset: 0; stroke-linejoin: miter; stroke-miterlimit: 4; is-custom-font: none; font-file-url: none; fill: rgb(225,232,238); fill-rule: evenodd; opacity: 1;" x="-83.3335" y="-1.3335" rx="0.92" ry="0.92" width="166.667" height="2.667"/>
</g>
		<g transform="matrix(1 0 0 1 235.5 109.5)">
<linearGradient id="SVGID_26" gradientUnits="objectBoundingBox" gradientTransform="matrix(1 0 0 1 0 0)" x1="0.14811" y1="-0.22361999999999999" x2="0.75996" y2="1.1940600000000001">
<stop offset="0%" style="stop-color:rgb(250,217,97);stop-opacity: 1"/>
<stop offset="100%" style="stop-color:rgb(255,82,193);stop-opacity: 1"/>
</linearGradient>
<circle style="stroke: none; stroke-width: 1; stroke-dasharray: none; stroke-linecap: butt; stroke-dashoffset: 0; stroke-linejoin: miter; stroke-miterlimit: 4; is-custom-font: none; font-file-url: none; fill: url(#SVGID_26); fill-rule: evenodd; opacity: 1;" cx="0" cy="0" r="15"/>
</g>
		<g transform="matrix(1 0 0 1 295.25 100.1665)">
<rect style="stroke: none; stroke-width: 1; stroke-dasharray: none; stroke-linecap: butt; stroke-dashoffset: 0; stroke-linejoin: miter; stroke-miterlimit: 4; is-custom-font: none; font-file-url: none; fill: rgb(225,232,238); fill-rule: evenodd; opacity: 1;" x="-28.75" y="-2.6665" rx="0.92" ry="0.92" width="57.5" height="5.333"/>
</g>
		<g transform="matrix(1 0 0 1 366.5 109.5005)">
<rect style="stroke: none; stroke-width: 1; stroke-dasharray: none; stroke-linecap: butt; stroke-dashoffset: 0; stroke-linejoin: miter; stroke-miterlimit: 4; is-custom-font: none; font-file-url: none; fill: rgb(225,232,238); fill-rule: evenodd; opacity: 1;" x="-100" y="-1.3335" rx="0.92" ry="0.92" width="200" height="2.667"/>
</g>
		<g transform="matrix(1 0 0 1 358.1665 114.8335)">
<rect style="stroke: none; stroke-width: 1; stroke-dasharray: none; stroke-linecap: butt; stroke-dashoffset: 0; stroke-linejoin: miter; stroke-miterlimit: 4; is-custom-font: none; font-file-url: none; fill: rgb(225,232,238); fill-rule: evenodd; opacity: 1;" x="-91.6665" y="-1.3335" rx="0.92" ry="0.92" width="183.333" height="2.667"/>
</g>
		<g transform="matrix(1 0 0 1 349.8335 120.1665)">
<rect style="stroke: none; stroke-width: 1; stroke-dasharray: none; stroke-linecap: butt; stroke-dashoffset: 0; stroke-linejoin: miter; stroke-miterlimit: 4; is-custom-font: none; font-file-url: none; fill: rgb(225,232,238); fill-rule: evenodd; opacity: 1;" x="-83.3335" y="-1.3335" rx="0.92" ry="0.92" width="166.667" height="2.667"/>
</g>
		<g transform="matrix(1 0 0 1 295.25 8.1665)">
<rect style="stroke: none; stroke-width: 1; stroke-dasharray: none; stroke-linecap: butt; stroke-dashoffset: 0; stroke-linejoin: miter; stroke-miterlimit: 4; is-custom-font: none; font-file-url: none; fill: rgb(225,232,238); fill-rule: evenodd; opacity: 1;" x="-28.75" y="-2.6665" rx="0.92" ry="0.92" width="57.5" height="5.333"/>
</g>
		<g transform="matrix(1 0 0 1 366.5 17.5005)">
<rect style="stroke: none; stroke-width: 1; stroke-dasharray: none; stroke-linecap: butt; stroke-dashoffset: 0; stroke-linejoin: miter; stroke-miterlimit: 4; is-custom-font: none; font-file-url: none; fill: rgb(225,232,238); fill-rule: evenodd; opacity: 1;" x="-100" y="-1.3335" rx="0.92" ry="0.92" width="200" height="2.667"/>
</g>
		<g transform="matrix(1 0 0 1 358.1665 22.8335)">
<rect style="stroke: none; stroke-width: 1; stroke-dasharray: none; stroke-linecap: butt; stroke-dashoffset: 0; stroke-linejoin: miter; stroke-miterlimit: 4; is-custom-font: none; font-file-url: none; fill: rgb(225,232,238); fill-rule: evenodd; opacity: 1;" x="-91.6665" y="-1.3335" rx="0.92" ry="0.92" width="183.333" height="2.667"/>
</g>
		<g transform="matrix(1 0 0 1 349.8335 28.1665)">
<rect style="stroke: none; stroke-width: 1; stroke-dasharray: none; stroke-linecap: butt; stroke-dashoffset: 0; stroke-linejoin: miter; stroke-miterlimit: 4; is-custom-font: none; font-file-url: none; fill: rgb(225,232,238); fill-rule: evenodd; opacity: 1;" x="-83.3335" y="-1.3335" rx="0.92" ry="0.92" width="166.667" height="2.667"/>
</g>
		<g transform="matrix(1 0 0 1 235.5 17.5)">
<linearGradient id="SVGID_27" gradientUnits="objectBoundingBox" gradientTransform="matrix(1 0 0 1 0 0)" x1="0.5" y1="0" x2="0.5" y2="1">
<stop offset="0%" style="stop-color:rgb(0,199,250);stop-opacity: 1"/>
<stop offset="100%" style="stop-color:rgb(0,125,250);stop-opacity: 1"/>
</linearGradient>
<circle style="stroke: none; stroke-width: 1; stroke-dasharray: none; stroke-linecap: butt; stroke-dashoffset: 0; stroke-linejoin: miter; stroke-miterlimit: 4; is-custom-font: none; font-file-url: none; fill: url(#SVGID_27); fill-rule: evenodd; opacity: 1;" cx="0" cy="0" r="15"/>
</g>
		<g transform="matrix(1 0 0 1 295.25 146.1665)">
<rect style="stroke: none; stroke-width: 1; stroke-dasharray: none; stroke-linecap: butt; stroke-dashoffset: 0; stroke-linejoin: miter; stroke-miterlimit: 4; is-custom-font: none; font-file-url: none; fill: rgb(225,232,238); fill-rule: evenodd; opacity: 1;" x="-28.75" y="-2.6665" rx="0.92" ry="0.92" width="57.5" height="5.333"/>
</g>
		<g transform="matrix(1 0 0 1 366.5 155.5005)">
<rect style="stroke: none; stroke-width: 1; stroke-dasharray: none; stroke-linecap: butt; stroke-dashoffset: 0; stroke-linejoin: miter; stroke-miterlimit: 4; is-custom-font: none; font-file-url: none; fill: rgb(225,232,238); fill-rule: evenodd; opacity: 1;" x="-100" y="-1.3335" rx="0.92" ry="0.92" width="200" height="2.667"/>
</g>
		<g transform="matrix(1 0 0 1 358.1665 160.8335)">
<rect style="stroke: none; stroke-width: 1; stroke-dasharray: none; stroke-linecap: butt; stroke-dashoffset: 0; stroke-linejoin: miter; stroke-miterlimit: 4; is-custom-font: none; font-file-url: none; fill: rgb(225,232,238); fill-rule: evenodd; opacity: 1;" x="-91.6665" y="-1.3335" rx="0.92" ry="0.92" width="183.333" height="2.667"/>
</g>
		<g transform="matrix(1 0 0 1 349.8335 166.1665)">
<rect style="stroke: none; stroke-width: 1; stroke-dasharray: none; stroke-linecap: butt; stroke-dashoffset: 0; stroke-linejoin: miter; stroke-miterlimit: 4; is-custom-font: none; font-file-url: none; fill: rgb(225,232,238); fill-rule: evenodd; opacity: 1;" x="-83.3335" y="-1.3335" rx="0.92" ry="0.92" width="166.667" height="2.667"/>
</g>
		<g transform="matrix(1 0 0 1 235.5 155.5)">
<linearGradient id="SVGID_28" gradientUnits="objectBoundingBox" gradientTransform="matrix(1 0 0 1 0 0)" x1="0.5" y1="0" x2="0.5" y2="1">
<stop offset="0%" style="stop-color:rgb(0,199,250);stop-opacity: 1"/>
<stop offset="100%" style="stop-color:rgb(0,125,250);stop-opacity: 1"/>
</linearGradient>
<circle style="stroke: none; stroke-width: 1; stroke-dasharray: none; stroke-linecap: butt; stroke-dashoffset: 0; stroke-linejoin: miter; stroke-miterlimit: 4; is-custom-font: none; font-file-url: none; fill: url(#SVGID_28); fill-rule: evenodd; opacity: 1;" cx="0" cy="0" r="15"/>
</g>
		<g transform="matrix(1 0 0 1 295.25 54.1665)">
<rect style="stroke: none; stroke-width: 1; stroke-dasharray: none; stroke-linecap: butt; stroke-dashoffset: 0; stroke-linejoin: miter; stroke-miterlimit: 4; is-custom-font: none; font-file-url: none; fill: rgb(225,232,238); fill-rule: evenodd; opacity: 1;" x="-28.75" y="-2.6665" rx="0.92" ry="0.92" width="57.5" height="5.333"/>
</g>
		<g transform="matrix(1 0 0 1 366.5 63.5005)">
<rect style="stroke: none; stroke-width: 1; stroke-dasharray: none; stroke-linecap: butt; stroke-dashoffset: 0; stroke-linejoin: miter; stroke-miterlimit: 4; is-custom-font: none; font-file-url: none; fill: rgb(225,232,238); fill-rule: evenodd; opacity: 1;" x="-100" y="-1.3335" rx="0.92" ry="0.92" width="200" height="2.667"/>
</g>
		<g transform="matrix(1 0 0 1 358.1665 68.8335)">
<rect style="stroke: none; stroke-width: 1; stroke-dasharray: none; stroke-linecap: butt; stroke-dashoffset: 0; stroke-linejoin: miter; stroke-miterlimit: 4; is-custom-font: none; font-file-url: none; fill: rgb(225,232,238); fill-rule: evenodd; opacity: 1;" x="-91.6665" y="-1.3335" rx="0.92" ry="0.92" width="183.333" height="2.667"/>
</g>
		<g transform="matrix(1 0 0 1 349.8335 74.1665)">
<rect style="stroke: none; stroke-width: 1; stroke-dasharray: none; stroke-linecap: butt; stroke-dashoffset: 0; stroke-linejoin: miter; stroke-miterlimit: 4; is-custom-font: none; font-file-url: none; fill: rgb(225,232,238); fill-rule: evenodd; opacity: 1;" x="-83.3335" y="-1.3335" rx="0.92" ry="0.92" width="166.667" height="2.667"/>
</g>
		<g transform="matrix(1 0 0 1 235.5 63.5)">
<linearGradient id="SVGID_29" gradientUnits="objectBoundingBox" gradientTransform="matrix(1 0 0 1 0 0)" x1="0.28973" y1="0" x2="0.902" y2="1.11244">
<stop offset="0%" style="stop-color:rgb(255,82,193);stop-opacity: 1"/>
<stop offset="100%" style="stop-color:rgb(153,82,255);stop-opacity: 1"/>
</linearGradient>
<circle style="stroke: none; stroke-width: 1; stroke-dasharray: none; stroke-linecap: butt; stroke-dashoffset: 0; stroke-linejoin: miter; stroke-miterlimit: 4; is-custom-font: none; font-file-url: none; fill: url(#SVGID_29); fill-rule: evenodd; opacity: 1;" cx="0" cy="0" r="15"/>
</g>
		<g transform="matrix(1 0 0 1 295.25 192.1665)">
<rect style="stroke: none; stroke-width: 1; stroke-dasharray: none; stroke-linecap: butt; stroke-dashoffset: 0; stroke-linejoin: miter; stroke-miterlimit: 4; is-custom-font: none; font-file-url: none; fill: rgb(225,232,238); fill-rule: evenodd; opacity: 1;" x="-28.75" y="-2.6665" rx="0.92" ry="0.92" width="57.5" height="5.333"/>
</g>
		<g transform="matrix(1 0 0 1 366.5 201.5005)">
<rect style="stroke: none; stroke-width: 1; stroke-dasharray: none; stroke-linecap: butt; stroke-dashoffset: 0; stroke-linejoin: miter; stroke-miterlimit: 4; is-custom-font: none; font-file-url: none; fill: rgb(225,232,238); fill-rule: evenodd; opacity: 1;" x="-100" y="-1.3335" rx="0.92" ry="0.92" width="200" height="2.667"/>
</g>
		<g transform="matrix(1 0 0 1 358.1665 206.8335)">
<rect style="stroke: none; stroke-width: 1; stroke-dasharray: none; stroke-linecap: butt; stroke-dashoffset: 0; stroke-linejoin: miter; stroke-miterlimit: 4; is-custom-font: none; font-file-url: none; fill: rgb(225,232,238); fill-rule: evenodd; opacity: 1;" x="-91.6665" y="-1.3335" rx="0.92" ry="0.92" width="183.333" height="2.667"/>
</g>
		<g transform="matrix(1 0 0 1 349.8335 212.1665)">
<rect style="stroke: none; stroke-width: 1; stroke-dasharray: none; stroke-linecap: butt; stroke-dashoffset: 0; stroke-linejoin: miter; stroke-miterlimit: 4; is-custom-font: none; font-file-url: none; fill: rgb(225,232,238); fill-rule: evenodd; opacity: 1;" x="-83.3335" y="-1.3335" rx="0.92" ry="0.92" width="166.667" height="2.667"/>
</g>
		<g transform="matrix(1 0 0 1 235.5 201.5)">
<linearGradient id="SVGID_30" gradientUnits="objectBoundingBox" gradientTransform="matrix(1 0 0 1 0 0)" x1="0.28973" y1="0" x2="0.902" y2="1.11244">
<stop offset="0%" style="stop-color:rgb(255,82,193);stop-opacity: 1"/>
<stop offset="100%" style="stop-color:rgb(153,82,255);stop-opacity: 1"/>
</linearGradient>
<circle style="stroke: none; stroke-width: 1; stroke-dasharray: none; stroke-linecap: butt; stroke-dashoffset: 0; stroke-linejoin: miter; stroke-miterlimit: 4; is-custom-font: none; font-file-url: none; fill: url(#SVGID_30); fill-rule: evenodd; opacity: 1;" cx="0" cy="0" r="15"/>
</g>
		<g transform="matrix(1 0 0 1 235.5 247.5)">
<linearGradient id="SVGID_31" gradientUnits="objectBoundingBox" gradientTransform="matrix(1 0 0 1 0 0)" x1="0.14811" y1="-0.22361999999999999" x2="0.75996" y2="1.1940600000000001">
<stop offset="0%" style="stop-color:rgb(250,217,97);stop-opacity: 1"/>
<stop offset="100%" style="stop-color:rgb(255,82,193);stop-opacity: 1"/>
</linearGradient>
<circle style="stroke: none; stroke-width: 1; stroke-dasharray: none; stroke-linecap: butt; stroke-dashoffset: 0; stroke-linejoin: miter; stroke-miterlimit: 4; is-custom-font: none; font-file-url: none; fill: url(#SVGID_31); fill-rule: evenodd; opacity: 1;" cx="0" cy="0" r="15"/>
</g>
		<g transform="matrix(1 0 0 1 295.25 238.1665)">
<rect style="stroke: none; stroke-width: 1; stroke-dasharray: none; stroke-linecap: butt; stroke-dashoffset: 0; stroke-linejoin: miter; stroke-miterlimit: 4; is-custom-font: none; font-file-url: none; fill: rgb(225,232,238); fill-rule: evenodd; opacity: 1;" x="-28.75" y="-2.6665" rx="0.92" ry="0.92" width="57.5" height="5.333"/>
</g>
		<g transform="matrix(1 0 0 1 366.5 247.5005)">
<rect style="stroke: none; stroke-width: 1; stroke-dasharray: none; stroke-linecap: butt; stroke-dashoffset: 0; stroke-linejoin: miter; stroke-miterlimit: 4; is-custom-font: none; font-file-url: none; fill: rgb(225,232,238); fill-rule: evenodd; opacity: 1;" x="-100" y="-1.3335" rx="0.92" ry="0.92" width="200" height="2.667"/>
</g>
		<g transform="matrix(1 0 0 1 358.1665 252.8335)">
<rect style="stroke: none; stroke-width: 1; stroke-dasharray: none; stroke-linecap: butt; stroke-dashoffset: 0; stroke-linejoin: miter; stroke-miterlimit: 4; is-custom-font: none; font-file-url: none; fill: rgb(225,232,238); fill-rule: evenodd; opacity: 1;" x="-91.6665" y="-1.3335" rx="0.92" ry="0.92" width="183.333" height="2.667"/>
</g>
		<g transform="matrix(1 0 0 1 349.8335 258.1665)">
<rect style="stroke: none; stroke-width: 1; stroke-dasharray: none; stroke-linecap: butt; stroke-dashoffset: 0; stroke-linejoin: miter; stroke-miterlimit: 4; is-custom-font: none; font-file-url: none; fill: rgb(225,232,238); fill-rule: evenodd; opacity: 1;" x="-83.3335" y="-1.3335" rx="0.92" ry="0.92" width="166.667" height="2.667"/>
</g>
		<g transform="matrix(1 0 0 1 295.25 284.1665)">
<rect style="stroke: none; stroke-width: 1; stroke-dasharray: none; stroke-linecap: butt; stroke-dashoffset: 0; stroke-linejoin: miter; stroke-miterlimit: 4; is-custom-font: none; font-file-url: none; fill: rgb(225,232,238); fill-rule: evenodd; opacity: 1;" x="-28.75" y="-2.6665" rx="0.92" ry="0.92" width="57.5" height="5.333"/>
</g>
		<g transform="matrix(1 0 0 1 366.5 293.5005)">
<rect style="stroke: none; stroke-width: 1; stroke-dasharray: none; stroke-linecap: butt; stroke-dashoffset: 0; stroke-linejoin: miter; stroke-miterlimit: 4; is-custom-font: none; font-file-url: none; fill: rgb(225,232,238); fill-rule: evenodd; opacity: 1;" x="-100" y="-1.3335" rx="0.92" ry="0.92" width="200" height="2.667"/>
</g>
		<g transform="matrix(1 0 0 1 358.1665 298.8335)">
<rect style="stroke: none; stroke-width: 1; stroke-dasharray: none; stroke-linecap: butt; stroke-dashoffset: 0; stroke-linejoin: miter; stroke-miterlimit: 4; is-custom-font: none; font-file-url: none; fill: rgb(225,232,238); fill-rule: evenodd; opacity: 1;" x="-91.6665" y="-1.3335" rx="0.92" ry="0.92" width="183.333" height="2.667"/>
</g>
		<g transform="matrix(1 0 0 1 349.8335 304.1665)">
<rect style="stroke: none; stroke-width: 1; stroke-dasharray: none; stroke-linecap: butt; stroke-dashoffset: 0; stroke-linejoin: miter; stroke-miterlimit: 4; is-custom-font: none; font-file-url: none; fill: rgb(225,232,238); fill-rule: evenodd; opacity: 1;" x="-83.3335" y="-1.3335" rx="0.92" ry="0.92" width="166.667" height="2.667"/>
</g>
		<g transform="matrix(1 0 0 1 235.5 293.5)">
<linearGradient id="SVGID_32" gradientUnits="objectBoundingBox" gradientTransform="matrix(1 0 0 1 0 0)" x1="0.5" y1="0" x2="0.5" y2="1">
<stop offset="0%" style="stop-color:rgb(0,199,250);stop-opacity: 1"/>
<stop offset="100%" style="stop-color:rgb(0,125,250);stop-opacity: 1"/>
</linearGradient>
<circle style="stroke: none; stroke-width: 1; stroke-dasharray: none; stroke-linecap: butt; stroke-dashoffset: 0; stroke-linejoin: miter; stroke-miterlimit: 4; is-custom-font: none; font-file-url: none; fill: url(#SVGID_32); fill-rule: evenodd; opacity: 1;" cx="0" cy="0" r="15"/>
</g>
</g>
</g>
</svg>